version=1
nRows=32
nColumns=19
inDegrees=yes
endheader
time	ground_force_vx	ground_force_vy	ground_force_vz	ground_force_px	ground_force_py	ground_force_pz	1_ground_force_vx	1_ground_force_vy	1_ground_force_vz	1_ground_force_px	1_ground_force_py	1_ground_force_pz	ground_torque_x	ground_torque_y	ground_torque_z	1_ground_torque_x	1_ground_torque_y	1_ground_torque_z
224.98	-101.223732	739.013489	118.306267	-0.063119	0.000000	-0.086211	7.193352	-13.701341	24.972010	-0.566486	0.000000	-0.042225	-0.000000	-16.211540	0.000000	0.000000	1.772746	-0.000000
224.99	-56.960800	806.797729	61.978390	-0.089764	0.000000	-0.100596	-0.000000	0.000000	-0.000000	0.000000	0.000000	0.250000	0.000000	-18.484791	-0.000000	-0.000000	0.000000	-0.000000
225.00	-88.719872	743.525085	39.450626	-0.129696	0.000000	-0.107510	3.235696	22.431725	-29.050016	0.451237	-0.000000	0.468201	0.000000	-14.208492	0.000000	-0.000000	-23.854385	0.000000
225.01	-53.633934	725.085876	44.981316	-0.081686	0.000000	-0.088323	-36.825180	-9.140291	-11.907208	3.408690	-0.000000	0.621772	-0.000000	-25.962332	0.000000	-0.000000	-32.307912	0.000000
225.02	-58.427704	763.160278	88.224800	-0.095607	0.000000	-0.077890	17.159620	-11.727874	22.428581	-1.471743	0.000000	0.702870	-0.000000	-11.806520	0.000000	-0.000000	-25.180187	0.000000
225.03	-53.053669	743.473511	84.872665	-0.171130	0.000000	-0.090994	11.680802	-7.143043	29.594013	-4.949827	0.000000	-0.267423	0.000000	-11.670273	-0.000000	-0.000000	-138.781545	0.000000
225.04	-38.200703	738.588196	34.369144	-0.141836	0.000000	-0.101686	-39.511414	15.100475	-24.524109	-2.524061	0.000000	0.126060	-0.000000	-25.963099	0.000000	0.000000	52.076880	-0.000000
225.05	-46.445549	655.124756	35.284878	-0.133048	0.000000	-0.095404	-0.000000	0.000000	-0.000000	0.000000	0.000000	0.250000	-0.000000	-7.923888	0.000000	-0.000000	0.000000	-0.000000
225.06	-2.043761	648.901367	58.798782	-0.147222	0.000000	-0.070597	-0.000000	0.000000	-0.000000	0.000000	0.000000	0.250000	-0.000000	-17.816512	0.000000	-0.000000	0.000000	-0.000000
225.07	-50.277985	680.522705	77.333046	-0.147868	0.000000	-0.089905	-7.311988	-30.710009	22.695040	-0.842042	0.000000	0.221446	-0.000000	-8.370647	0.000000	-0.000000	-9.170151	0.000000
225.08	-22.409000	624.826233	61.081482	-0.171005	0.000000	-0.093875	-0.761593	30.031254	-3.346972	-0.817238	0.000000	0.305987	-0.000000	-12.423390	0.000000	0.000000	1.551732	-0.000000
225.09	6.377234	580.829651	31.911612	-0.226542	0.000000	-0.083139	-0.000000	0.000000	-0.000000	0.000000	0.000000	0.250000	-0.000000	-28.753033	0.000000	-0.000000	0.000000	-0.000000
225.10	-29.788759	581.535400	45.100758	-0.175499	0.000000	-0.085782	9.812944	-26.218464	-3.001196	-1.072725	0.000000	0.249008	0.000000	1.274949	-0.000000	0.000000	6.316080	-0.000000
225.11	-1.176077	582.944824	45.407894	-0.117497	0.000000	-0.088850	-0.000000	0.000000	-0.000000	0.000000	0.000000	0.250000	-0.000000	-2.466674	0.000000	-0.000000	0.000000	-0.000000
225.12	-3.323738	558.707092	48.368031	-0.218222	0.000000	-0.077875	0.383072	19.358143	21.939001	-0.527550	0.000000	0.461260	-0.000000	-24.214794	0.000000	-0.000000	-3.260480	0.000000
225.13	-6.479139	551.366150	37.379993	-0.248846	0.000000	-0.085767	-0.000000	0.000000	-0.000000	0.000000	0.000000	0.250000	-0.000000	-4.401962	0.000000	-0.000000	0.000000	-0.000000
225.14	7.621423	573.476013	45.299713	-0.191509	0.000000	-0.095028	-22.345280	-7.129972	-9.259095	-1.114834	0.000000	1.491322	0.000000	-13.995744	-0.000000	0.000000	36.244793	0.000000
225.15	-2.683659	520.385437	37.861187	-0.225612	0.000000	-0.078978	-0.000000	0.000000	-0.000000	0.000000	0.000000	0.250000	-0.000000	-3.921406	0.000000	-0.000000	0.000000	-0.000000
225.16	27.922091	532.517334	47.346611	-0.218996	0.000000	-0.059230	-0.000000	0.000000	-0.000000	0.000000	0.000000	0.250000	-0.000000	-17.429020	0.000000	-0.000000	0.000000	-0.000000
225.17	5.243261	570.872681	35.104809	-0.240700	0.000000	-0.091704	-0.000000	0.000000	-0.000000	0.000000	0.000000	0.250000	-0.000000	-5.371512	0.000000	-0.000000	0.000000	-0.000000
225.18	18.065435	600.881775	35.101364	-0.268658	0.000000	-0.094457	-0.000000	0.000000	-0.000000	0.000000	0.000000	0.250000	-0.000000	-4.149406	0.000000	-0.000000	0.000000	-0.000000
225.19	41.368702	559.369751	41.805828	-0.246270	0.000000	-0.070324	-0.000000	0.000000	-0.000000	0.000000	0.000000	0.250000	-0.000000	-19.940780	0.000000	-0.000000	0.000000	-0.000000
225.20	10.847161	540.403320	36.597664	-0.262397	0.000000	-0.053302	-0.000000	0.000000	-0.000000	0.000000	0.000000	0.250000	-0.000000	-0.613849	0.000000	-0.000000	0.000000	-0.000000
225.21	47.891754	588.724548	40.426693	-0.301891	0.000000	-0.073231	-11.115543	22.017952	-10.842628	-0.201045	0.000000	0.091511	-0.000000	-10.050921	0.000000	-0.000000	-11.303530	0.000000
225.22	53.577915	648.606689	36.495419	-0.307288	0.000000	-0.098433	-0.000000	0.000000	-0.000000	0.000000	0.000000	0.250000	-0.000000	-17.429848	0.000000	-0.000000	0.000000	-0.000000
225.23	37.548512	629.020508	39.703918	-0.279524	0.000000	-0.062327	4.325775	-26.594244	8.859587	0.006393	-0.000000	0.251800	0.000000	4.234538	-0.000000	0.000000	1.993418	-0.000000
225.24	67.172501	598.219116	48.948051	-0.299544	0.000000	-0.035163	-0.000000	0.000000	-0.000000	0.000000	0.000000	0.250000	-0.000000	-20.455909	0.000000	-0.000000	0.000000	-0.000000
225.25	67.903648	643.604004	26.219698	-0.343560	0.000000	-0.068965	-0.000000	0.000000	-0.000000	0.000000	0.000000	0.250000	-0.000000	-12.862332	0.000000	-0.000000	0.000000	-0.000000
225.26	91.829727	718.811157	34.392673	-0.337991	0.000000	-0.073006	-0.000000	0.000000	-0.000000	0.000000	0.000000	0.250000	-0.000000	-2.684850	0.000000	-0.000000	0.000000	-0.000000
225.27	86.142487	700.130005	45.991135	-0.365407	0.000000	-0.060126	-0.000000	0.000000	-0.000000	0.000000	0.000000	0.250000	-0.000000	-9.200332	0.000000	-0.000000	0.000000	-0.000000
225.28	106.550865	714.968567	55.137085	-0.347289	0.000000	-0.034053	-0.000000	0.000000	-0.000000	0.000000	0.000000	0.250000	-0.000000	-15.140503	0.000000	-0.000000	0.000000	-0.000000
225.29	144.620255	745.964905	44.030403	-0.348787	0.000000	-0.048779	-0.000000	0.000000	-0.000000	0.000000	0.000000	0.250000	-0.000000	-17.472362	0.000000	-0.000000	0.000000	-0.000000
